<svg width="82" height="93" viewBox="0 0 82 93" fill="none" xmlns="http://www.w3.org/2000/svg">
<path d="M72.2016 14.873H17.0293L25.9185 5.98377C27.2874 4.61487 27.2874 2.39557 25.9185 1.02667C24.5498 -0.342225 22.3303 -0.342225 20.9614 1.02667L1.02667 20.9617C-0.342225 22.3306 -0.342225 24.5499 1.02667 25.9188L20.9614 45.8536C21.6457 46.538 22.5426 46.8801 23.4398 46.8801C24.3369 46.8801 25.234 46.538 25.9182 45.8532C27.2871 44.4843 27.2871 42.265 25.9182 40.8961L17.0289 32.0069H72.2015C76.9252 32.0069 80.7684 28.1639 80.7684 23.4399C80.7686 18.7164 76.9256 14.873 72.2016 14.873Z" fill="#9F9F9F"/>
<path d="M80.9104 66.7814L60.9758 46.8467C59.6071 45.4778 57.3876 45.4778 56.0187 46.8467C54.6498 48.2156 54.6498 50.4349 56.0187 51.8038L64.9079 60.693H9.73554C5.01179 60.693 1.16858 64.536 1.16858 69.26C1.16858 73.9839 5.01162 77.8271 9.73554 77.8271H64.9079L56.0187 86.7163C54.6498 88.0852 54.6498 90.3045 56.0187 91.6734C56.7032 92.3578 57.6003 92.7002 58.4971 92.7002C59.3939 92.7002 60.2913 92.3582 60.9755 91.6734L80.9102 71.7387C82.2793 70.3696 82.2793 68.1503 80.9104 66.7814Z" fill="#9F9F9F"/>
</svg>
